<svg xmlns="http://www.w3.org/2000/svg" viewBox="0 0 463.58 90.23"><defs><style>.cls-1{fill:#19355f;}.cls-2{fill:#4372b8;}</style></defs><g id="Layer_2" data-name="Layer 2"><g id="Layer_1-2" data-name="Layer 1"><polygon class="cls-1" points="389.24 10.46 389.24 27.57 376.09 36.23 376.09 10.46 389.24 10.46"/><path class="cls-1" d="M385.39,61.46a13.1,13.1,0,0,1,3.85,9.3v7.7H376.09V57.61A13.11,13.11,0,0,1,385.39,61.46Z"/><path class="cls-1" d="M440.91,40.19H389.25V27.57h0L363,52.48h50.39v26h13.15v-26h18.12A5.94,5.94,0,0,1,448,57.61h0V78.46h13.15V57.61A15.83,15.83,0,0,0,457,47.08a21.56,21.56,0,0,0,6.6-15.61c0-11.18-8.29-20.32-18.74-21-.4,0-.8,0-1.2,0H413.41V34.62h3.94a9.21,9.21,0,0,0,9.21-9.21V22.76h17.08c3.84,0,7,4.65,7,8.7s-3.12,8.72-7,8.72Z"/><path class="cls-2" d="M150.3,78.7a17.3,17.3,0,0,1-1.76.1h-1.76a30.59,30.59,0,0,1-13.36-2.74,27.26,27.26,0,0,1-9.54-7.44,31.13,31.13,0,0,1-5.68-11,49.12,49.12,0,0,1-.15-26.24,33.93,33.93,0,0,1,5.24-11.06,26.68,26.68,0,0,1,9.06-7.83,27.37,27.37,0,0,1,13.17-3,24,24,0,0,1,4.45.44,37.13,37.13,0,0,1,4.45,1.13c1.44.46,2.79.93,4.06,1.42s2.36.93,3.28,1.32c.72.33,1.35.6,1.91.83a3.6,3.6,0,0,0,1.22.34,1.45,1.45,0,0,0,1.13-.49,3.6,3.6,0,0,0,.69-1.22,7.63,7.63,0,0,0,.34-1.52,12.43,12.43,0,0,0,.1-1.37h2.64V32.69h-2.15A36.59,36.59,0,0,0,166.32,26a25.36,25.36,0,0,0-2.89-6.46,16.56,16.56,0,0,0-4.75-4.9,12.23,12.23,0,0,0-7-2,15.49,15.49,0,0,0-9.94,3.23,24.78,24.78,0,0,0-6.56,8,37.33,37.33,0,0,0-3.57,10.13,49.77,49.77,0,0,0-1.08,9.69,55.81,55.81,0,0,0,1,9.94A41.92,41.92,0,0,0,135,64.4,26.26,26.26,0,0,0,141.55,73a15.05,15.05,0,0,0,10.23,3.52,10.25,10.25,0,0,0,6.46-2.2,21.53,21.53,0,0,0,4.9-5.43,32.49,32.49,0,0,0,3.33-7,41.81,41.81,0,0,0,1.76-6.75h2V78.4H168a7.4,7.4,0,0,0-.15-1.37c-.1-.52-.21-1-.34-1.52a2.8,2.8,0,0,0-.64-1.22,1.33,1.33,0,0,0-1-.49,1.59,1.59,0,0,0-.73.24,8,8,0,0,1-.93.44l-.49.2a41.9,41.9,0,0,1-4.7,2.25A30.52,30.52,0,0,1,150.3,78.7Z"/><path class="cls-2" d="M178,11.93c-.26,0-.65,0-1.17,0s-1-.05-1.27-.05a5.82,5.82,0,0,0-1.22-.1H173V10.36h26.43v1.37h-8.22l.1,64.42,8.71.2a14.36,14.36,0,0,0,7.15-1.71,15,15,0,0,0,5.09-4.75,22.14,22.14,0,0,0,3.08-7.1A42.65,42.65,0,0,0,216.58,54h2.06V78.41H173.31V76.55h4.8Z"/><path class="cls-2" d="M244.18,78.4h-23V76.74h4.89L226,12.13h-1.13a6.85,6.85,0,0,1-1.22-.1c-.33,0-.7,0-1.13,0s-.77-.05-1-.05V10.46h22.71v1.47H239l.2,64.61c.26,0,.65,0,1.18,0s1,0,1.27,0a5.2,5.2,0,0,0,1.22.1h1.32V78.4Z"/><path class="cls-2" d="M279.91,78.7a17.3,17.3,0,0,1-1.76.1h-1.76A30.59,30.59,0,0,1,263,76.06a27.26,27.26,0,0,1-9.54-7.44,31.13,31.13,0,0,1-5.68-11,49.12,49.12,0,0,1-.15-26.24,33.93,33.93,0,0,1,5.24-11.06A26.68,26.68,0,0,1,262,12.48a27.37,27.37,0,0,1,13.17-3,24,24,0,0,1,4.45.44A37.13,37.13,0,0,1,284,11.06c1.43.46,2.79.93,4.06,1.42s2.37.93,3.28,1.32c.72.33,1.35.6,1.91.83a3.6,3.6,0,0,0,1.22.34,1.45,1.45,0,0,0,1.13-.49,3.6,3.6,0,0,0,.69-1.22,7.63,7.63,0,0,0,.34-1.52,12.43,12.43,0,0,0,.1-1.37h2.64V32.69h-2.15A36.59,36.59,0,0,0,295.93,26,25,25,0,0,0,293,19.57a16.56,16.56,0,0,0-4.75-4.9,12.23,12.23,0,0,0-7-2,15.49,15.49,0,0,0-9.94,3.23,24.78,24.78,0,0,0-6.56,8,37.33,37.33,0,0,0-3.57,10.13,49.77,49.77,0,0,0-1.08,9.69,55.81,55.81,0,0,0,1,9.94,41.92,41.92,0,0,0,3.48,10.72A26.26,26.26,0,0,0,271.16,73a15.05,15.05,0,0,0,10.23,3.52,10.25,10.25,0,0,0,6.46-2.2,21.3,21.3,0,0,0,4.89-5.43,32.49,32.49,0,0,0,3.33-7,41.81,41.81,0,0,0,1.76-6.75h2V78.4h-2.15a7.4,7.4,0,0,0-.15-1.37c-.1-.52-.21-1-.34-1.52a2.8,2.8,0,0,0-.64-1.22,1.33,1.33,0,0,0-1-.49,1.59,1.59,0,0,0-.73.24,8,8,0,0,1-.93.44l-.49.2a41.9,41.9,0,0,1-4.7,2.25A30.29,30.29,0,0,1,279.91,78.7Z"/><path class="cls-2" d="M328.76,78.4H303.41V76.93h6.36l-.1-64.61c-.33,0-.8,0-1.42-.05s-1.13,0-1.52,0a9,9,0,0,0-1.52-.1h-1.52V10.36H329v1.76h-6.46l.1,30.84,26.24-27.51c2-2.28,1.24-3.43-2.15-3.43H342V10.36h20.26V12h-2.35a8.18,8.18,0,0,0-4,1,23.67,23.67,0,0,0-4.16,3L332.58,36.49,359.7,76.63c.33,0,.7,0,1.13.05s.83,0,1.22,0h2.15v1.66H337.38V76.73h6.56l-.1-.69L323.58,44.62,322.5,46l.1,30.74c.33,0,.8,0,1.42,0s1.19,0,1.71,0a8,8,0,0,0,1.52.1h1.52V78.4Z"/><path class="cls-2" d="M81.82,53.22a2,2,0,0,1,0,.26l.35-.34Zm-8.56-2.55,3.56,3.61h0v0L73.3,50.63Zm2.4,9,.43-.43a1.8,1.8,0,0,1-.32-.06ZM45.11,78.8,11.44,45.12,45.12,11.43,57.54,23.86l18.13,6.69L45.11,0,0,45.12,45.11,90.23,60.87,74.47l-3-8.43Z"/><polygon class="cls-1" points="19.82 45.2 45.11 74.49 15.75 45.12 45.11 15.76 19.82 45.2"/><polygon class="cls-2" points="48.99 26.09 70.03 85.08 76.87 54.23 48.99 26.09"/><polygon class="cls-1" points="48.99 26.09 107.74 47.77 76.82 54.28 48.99 26.09"/></g></g></svg>